<?xml version="1.0" encoding="UTF-8"?>
<!-- Created with Inkscape (http://www.inkscape.org/) -->
<svg width="210mm" height="297mm" version="1.1" viewBox="0 0 210 297" xml:space="preserve" xmlns="http://www.w3.org/2000/svg"><g transform="matrix(8.819 0 0 8.819 2.11 38.19)" fill="none"><path d="m9.301 17.39h1.357v-1.06l0.7754-0.8658 1.098 1.926h1.499l-1.654-2.817 1.525-2.223h-1.57l-1.674 2.455v-2.455h-1.357z" fill="#1a1a1a" stroke-width=".109" style="font-variant-ligatures:none" aria-label="K"/><path d="m9.558 5h4.222c1.081 0 0.4875 1.664 0.0497 2.679l-0.4982 1.164-0.0673 0.157c0.4719-0.02349 0.9386 0.1105 1.33 0.382 1.464 1.374 2.652 3.028 3.497 4.869 0.3294 0.6808 0.4601 1.445 0.3763 2.2-0.1006 1.925-1.606 3.459-3.484 3.549h-6.63c-1.878-0.0875-3.386-1.62-3.489-3.545-0.08381-0.7552 0.04688-1.519 0.3764-2.2 0.8464-1.843 2.036-3.498 3.502-4.873 0.3914-0.2715 0.858-0.4055 1.33-0.382l-0.078-0.181-0.4875-1.14c-0.4358-1.015-1.033-2.679 0.04972-2.679z" clip-rule="evenodd" fill-rule="evenodd" stroke="#000" stroke-linecap="round" stroke-linejoin="round" stroke-width="1.5"/><path d="m13.3 9.75c0.4142 0 0.75-0.3358 0.75-0.75s-0.3358-0.75-0.75-0.75zm-3.19-1.5c-0.4142 0-0.75 0.3358-0.75 0.75s0.3358 0.75 0.75 0.75zm5.87 0.3999c0.3589-0.2068 0.4823-0.6653 0.2755-1.024s-0.6653-0.4823-1.024-0.2755zm-2.612 0.1931 0.1447 0.7359 0.0022-4.3e-4zm-3.336-0.024 0.1553-0.7338-0.0068-0.00138zm-1.864-1.475c-0.3625-0.2004-0.8188-0.06888-1.019 0.2936-0.2004 0.3625-0.06889 0.8188 0.2936 1.019zm5.132 0.9064h-3.19v1.5h3.19zm1.931-0.8999c-0.627 0.3612-1.306 0.6167-2.01 0.7574l0.2938 1.471c0.8653-0.1728 1.698-0.4864 2.465-0.9286zm-2.008 0.757c-1.003 0.1973-2.035 0.1899-3.036-0.02184l-0.3105 1.468c1.198 0.2536 2.434 0.2625 3.635 0.02616zm-3.042-0.02326c-0.7027-0.1419-1.381-0.3913-2.013-0.7403l-0.7256 1.313c0.7648 0.4227 1.588 0.7254 2.441 0.8977z" fill="#000"/></g></svg>
